<svg width="502" height="401" viewBox="0 0 502 401" fill="none" xmlns="http://www.w3.org/2000/svg">
<path d="M250 0.5L501.276 401H0.723816L250 0.5Z" fill="url(#paint0_linear_3_280)"/>
<path d="M180.609 116.983C181.081 115.596 182.836 115.17 183.891 116.188L473.655 395.841C475.597 397.715 474.27 401 471.572 401H88.1893C86.1339 401 84.6872 398.98 85.3491 397.034L180.609 116.983Z" fill="url(#paint1_linear_3_280)"/>
<path d="M277.214 211.895C278.553 210.262 281.116 210.488 282.149 212.33L385.493 396.532C386.615 398.532 385.17 401 382.877 401H128.343C125.81 401 124.417 398.055 126.025 396.097L277.214 211.895Z" fill="url(#paint2_linear_3_280)"/>
<path d="M218.608 285.274C218.781 282.951 221.42 281.703 223.326 283.043L383.248 395.546C385.644 397.232 384.451 401 381.522 401H213.231C211.487 401 210.11 399.517 210.24 397.777L218.608 285.274Z" fill="url(#paint3_linear_3_280)"/>
<defs>
<linearGradient id="paint0_linear_3_280" x1="251" y1="-1.52884e-07" x2="268" y2="401" gradientUnits="userSpaceOnUse">
<stop stop-color="#546E7A"/>
<stop offset="1" stop-color="#37474F"/>
</linearGradient>
<linearGradient id="paint1_linear_3_280" x1="182.5" y1="114" x2="281.5" y2="401" gradientUnits="userSpaceOnUse">
<stop stop-color="#78909C"/>
<stop offset="1" stop-color="#546E7A"/>
</linearGradient>
<linearGradient id="paint2_linear_3_280" x1="277.5" y1="215.5" x2="255" y2="401" gradientUnits="userSpaceOnUse">
<stop stop-color="#B0BEC5"/>
<stop offset="1" stop-color="#78909C"/>
</linearGradient>
<linearGradient id="paint3_linear_3_280" x1="220.5" y1="287.5" x2="300.5" y2="401" gradientUnits="userSpaceOnUse">
<stop stop-color="white"/>
<stop offset="1" stop-color="#B0BEC5"/>
</linearGradient>
</defs>
</svg>
