<svg width="1884" height="401" viewBox="0 0 1884 401" fill="none" xmlns="http://www.w3.org/2000/svg">
<path d="M250 0.5L501.276 401H0.723816L250 0.5Z" fill="url(#paint0_linear_1_19)"/>
<path d="M180.609 116.983C181.081 115.596 182.836 115.17 183.891 116.188L473.655 395.841C475.597 397.715 474.27 401 471.572 401H88.1893C86.1339 401 84.6872 398.98 85.3491 397.034L180.609 116.983Z" fill="url(#paint1_linear_1_19)"/>
<path d="M277.214 211.895C278.553 210.262 281.116 210.488 282.149 212.33L385.493 396.532C386.615 398.532 385.17 401 382.877 401H128.343C125.81 401 124.417 398.055 126.025 396.097L277.214 211.895Z" fill="url(#paint2_linear_1_19)"/>
<path d="M218.608 285.274C218.781 282.951 221.42 281.703 223.326 283.043L383.248 395.546C385.644 397.232 384.451 401 381.522 401H213.231C211.487 401 210.11 399.517 210.24 397.777L218.608 285.274Z" fill="url(#paint3_linear_1_19)"/>
<path d="M561.456 121.632H696.748V159.776H601.686V211.628H687.212V249.772H601.686V335H561.456V121.632ZM717.038 188.98H753.692V209.244H756.076C757.864 205.668 760.248 202.39 763.228 199.41C766.208 196.43 769.486 193.847 773.062 191.662C776.836 189.477 780.81 187.788 784.982 186.596C789.352 185.404 793.624 184.808 797.796 184.808C802.961 184.808 807.332 185.305 810.908 186.298C814.682 187.291 817.861 188.583 820.444 190.172L810.014 225.634C807.63 224.442 804.948 223.548 801.968 222.952C799.186 222.157 795.71 221.76 791.538 221.76C786.174 221.76 781.306 222.853 776.936 225.038C772.565 227.025 768.79 229.905 765.612 233.68C762.632 237.455 760.248 241.925 758.46 247.09C756.87 252.057 756.076 257.52 756.076 263.48V335H717.038V188.98ZM967.642 299.836C960.887 311.756 951.748 321.391 940.226 328.742C928.902 336.093 914.995 339.768 898.506 339.768C887.38 339.768 877.05 337.881 867.514 334.106C858.176 330.133 850.031 324.669 843.078 317.716C836.124 310.763 830.661 302.617 826.688 293.28C822.913 283.744 821.026 273.314 821.026 261.99C821.026 251.461 822.913 241.527 826.688 232.19C830.462 222.654 835.727 214.409 842.482 207.456C849.236 200.304 857.183 194.642 866.322 190.47C875.659 186.298 885.89 184.212 897.016 184.212C908.737 184.212 919.167 186.199 928.306 190.172C937.444 193.947 945.093 199.311 951.252 206.264C957.41 213.019 962.079 221.065 965.258 230.402C968.436 239.739 970.026 249.871 970.026 260.798C970.026 262.189 970.026 263.381 970.026 264.374C969.827 265.566 969.728 266.659 969.728 267.652C969.529 268.645 969.43 269.738 969.43 270.93H859.468C860.262 276.89 861.852 282.055 864.236 286.426C866.818 290.598 869.898 294.174 873.474 297.154C877.248 299.935 881.321 302.021 885.692 303.412C890.062 304.604 894.532 305.2 899.102 305.2C908.042 305.2 915.392 303.213 921.154 299.24C927.114 295.068 931.782 289.903 935.16 283.744L967.642 299.836ZM932.18 243.216C931.981 240.633 931.087 237.753 929.498 234.574C928.107 231.395 925.922 228.415 922.942 225.634C920.16 222.853 916.584 220.568 912.214 218.78C908.042 216.992 902.976 216.098 897.016 216.098C888.672 216.098 881.321 218.482 874.964 223.25C868.606 228.018 864.136 234.673 861.554 243.216H932.18ZM1086.41 319.504H1084.02C1079.46 325.067 1073.89 329.835 1067.34 333.808C1060.98 337.781 1052.73 339.768 1042.6 339.768C1035.05 339.768 1027.9 338.477 1021.15 335.894C1014.59 333.51 1008.83 330.133 1003.86 325.762C998.896 321.391 995.022 316.127 992.241 309.968C989.459 303.809 988.069 297.055 988.069 289.704C988.069 282.155 989.559 275.4 992.539 269.44C995.519 263.281 999.691 258.017 1005.05 253.646C1010.42 249.275 1016.68 245.997 1023.83 243.812C1031.18 241.428 1039.13 240.236 1047.67 240.236C1057.2 240.236 1065.05 241.031 1071.21 242.62C1077.37 244.011 1082.44 245.501 1086.41 247.09V242.62C1086.41 234.872 1083.33 228.515 1077.17 223.548C1071.01 218.383 1063.36 215.8 1054.22 215.8C1040.72 215.8 1029.29 221.462 1019.95 232.786L991.645 213.416C1007.14 193.947 1028.3 184.212 1055.12 184.212C1077.77 184.212 1095.05 189.576 1106.97 200.304C1118.89 210.833 1124.85 226.528 1124.85 247.388V335H1086.41V319.504ZM1086.41 275.698C1081.84 273.513 1077.07 271.824 1072.1 270.632C1067.34 269.241 1062.07 268.546 1056.31 268.546C1046.97 268.546 1039.72 270.632 1034.56 274.804C1029.59 278.777 1027.11 283.744 1027.11 289.704C1027.11 295.664 1029.49 300.432 1034.26 304.008C1039.23 307.584 1044.89 309.372 1051.24 309.372C1056.41 309.372 1061.18 308.478 1065.55 306.69C1069.92 304.703 1073.59 302.22 1076.57 299.24C1079.75 296.061 1082.14 292.485 1083.73 288.512C1085.51 284.34 1086.41 280.069 1086.41 275.698ZM1155.89 121.632H1194.93V237.852H1196.72L1245.59 188.98H1293.86V191.364L1239.63 244.11L1298.33 332.616V335H1252.14L1212.21 270.93L1194.93 287.916V335H1155.89V121.632ZM1378.68 184.212C1390.01 184.212 1400.34 186.199 1409.67 190.172C1419.21 193.947 1427.35 199.311 1434.11 206.264C1441.06 213.019 1446.43 221.164 1450.2 230.7C1454.17 240.236 1456.16 250.666 1456.16 261.99C1456.16 273.314 1454.17 283.744 1450.2 293.28C1446.43 302.816 1441.06 311.061 1434.11 318.014C1427.35 324.769 1419.21 330.133 1409.67 334.106C1400.34 337.881 1390.01 339.768 1378.68 339.768C1367.36 339.768 1356.93 337.881 1347.39 334.106C1338.05 330.133 1329.91 324.769 1322.96 318.014C1316.2 311.061 1310.84 302.816 1306.86 293.28C1303.09 283.744 1301.2 273.314 1301.2 261.99C1301.2 250.666 1303.09 240.236 1306.86 230.7C1310.84 221.164 1316.2 213.019 1322.96 206.264C1329.91 199.311 1338.05 193.947 1347.39 190.172C1356.93 186.199 1367.36 184.212 1378.68 184.212ZM1378.68 303.71C1383.65 303.71 1388.42 302.816 1392.99 301.028C1397.75 299.041 1401.93 296.26 1405.5 292.684C1409.08 289.108 1411.86 284.737 1413.85 279.572C1416.03 274.407 1417.12 268.546 1417.12 261.99C1417.12 255.434 1416.03 249.573 1413.85 244.408C1411.86 239.243 1409.08 234.872 1405.5 231.296C1401.93 227.72 1397.75 225.038 1392.99 223.25C1388.42 221.263 1383.65 220.27 1378.68 220.27C1373.52 220.27 1368.65 221.263 1364.08 223.25C1359.51 225.038 1355.44 227.72 1351.86 231.296C1348.29 234.872 1345.4 239.243 1343.22 244.408C1341.23 249.573 1340.24 255.434 1340.24 261.99C1340.24 268.546 1341.23 274.407 1343.22 279.572C1345.4 284.737 1348.29 289.108 1351.86 292.684C1355.44 296.26 1359.51 299.041 1364.08 301.028C1368.65 302.816 1373.52 303.71 1378.68 303.71ZM1500.09 167.822C1496.71 167.822 1493.43 167.226 1490.25 166.034C1487.27 164.643 1484.59 162.855 1482.21 160.67C1480.02 158.286 1478.24 155.604 1476.84 152.624C1475.65 149.644 1475.06 146.366 1475.06 142.79C1475.06 139.214 1475.65 135.936 1476.84 132.956C1478.24 129.976 1480.02 127.393 1482.21 125.208C1484.59 122.824 1487.27 121.036 1490.25 119.844C1493.43 118.453 1496.71 117.758 1500.09 117.758C1507.04 117.758 1513 120.241 1517.97 125.208C1522.94 129.976 1525.42 135.837 1525.42 142.79C1525.42 149.743 1522.94 155.703 1517.97 160.67C1513 165.438 1507.04 167.822 1500.09 167.822ZM1480.72 335V188.98H1519.76V335H1480.72ZM1662.77 317.418H1660.38C1656.81 323.577 1651.25 328.841 1643.7 333.212C1636.15 337.583 1626.81 339.768 1615.68 339.768C1606.35 339.768 1597.41 337.881 1588.86 334.106C1580.52 330.133 1573.07 324.769 1566.51 318.014C1560.16 311.061 1555.09 302.816 1551.32 293.28C1547.54 283.744 1545.65 273.314 1545.65 261.99C1545.65 250.666 1547.54 240.236 1551.32 230.7C1555.09 221.164 1560.16 213.019 1566.51 206.264C1573.07 199.311 1580.52 193.947 1588.86 190.172C1597.41 186.199 1606.35 184.212 1615.68 184.212C1626.81 184.212 1636.15 186.397 1643.7 190.768C1651.25 195.139 1656.81 200.403 1660.38 206.562H1662.77L1660.38 185.702V121.632H1699.42V335H1662.77V317.418ZM1623.73 303.71C1628.9 303.71 1633.76 302.816 1638.33 301.028C1643.1 299.041 1647.27 296.26 1650.85 292.684C1654.42 289.108 1657.31 284.737 1659.49 279.572C1661.68 274.407 1662.77 268.546 1662.77 261.99C1662.77 255.434 1661.68 249.573 1659.49 244.408C1657.31 239.243 1654.42 234.872 1650.85 231.296C1647.27 227.72 1643.1 225.038 1638.33 223.25C1633.76 221.263 1628.9 220.27 1623.73 220.27C1618.57 220.27 1613.6 221.263 1608.83 223.25C1604.26 225.237 1600.19 228.018 1596.61 231.594C1593.04 235.17 1590.16 239.541 1587.97 244.706C1585.79 249.871 1584.69 255.633 1584.69 261.99C1584.69 268.347 1585.79 274.109 1587.97 279.274C1590.16 284.439 1593.04 288.81 1596.61 292.386C1600.19 295.962 1604.26 298.743 1608.83 300.73C1613.6 302.717 1618.57 303.71 1623.73 303.71ZM1789.04 339.768C1779.5 339.768 1770.96 338.576 1763.41 336.192C1756.06 333.808 1749.6 330.729 1744.04 326.954C1738.68 322.981 1734.11 318.511 1730.33 313.544C1726.56 308.379 1723.68 303.213 1721.69 298.048L1756.56 283.148C1759.93 290.697 1764.4 296.359 1769.97 300.134C1775.73 303.71 1782.09 305.498 1789.04 305.498C1796.19 305.498 1801.85 304.207 1806.03 301.624C1810.2 299.041 1812.28 295.962 1812.28 292.386C1812.28 288.413 1810.5 285.234 1806.92 282.85C1803.54 280.267 1797.58 277.983 1789.04 275.996L1768.48 271.526C1763.91 270.533 1759.14 268.943 1754.17 266.758C1749.41 264.573 1745.03 261.791 1741.06 258.414C1737.09 255.037 1733.81 250.964 1731.23 246.196C1728.64 241.428 1727.35 235.865 1727.35 229.508C1727.35 222.356 1728.84 215.999 1731.82 210.436C1735 204.873 1739.27 200.205 1744.64 196.43C1750 192.457 1756.26 189.477 1763.41 187.49C1770.76 185.305 1778.61 184.212 1786.95 184.212C1800.86 184.212 1813.28 186.993 1824.2 192.556C1835.13 197.92 1843.18 206.562 1848.34 218.482L1814.67 232.19C1811.89 226.429 1807.81 222.257 1802.45 219.674C1797.09 217.091 1791.72 215.8 1786.36 215.8C1780.79 215.8 1775.93 216.992 1771.76 219.376C1767.58 221.561 1765.5 224.442 1765.5 228.018C1765.5 231.395 1767.19 234.077 1770.56 236.064C1774.14 238.051 1778.91 239.839 1784.87 241.428L1807.22 246.792C1822.12 250.368 1833.14 256.129 1840.3 264.076C1847.65 271.824 1851.32 281.062 1851.32 291.79C1851.32 298.147 1849.83 304.207 1846.85 309.968C1843.87 315.729 1839.6 320.895 1834.04 325.464C1828.67 329.835 1822.12 333.311 1814.37 335.894C1806.82 338.477 1798.38 339.768 1789.04 339.768Z" fill="white"/>
<defs>
<linearGradient id="paint0_linear_1_19" x1="251" y1="-1.52884e-07" x2="268" y2="401" gradientUnits="userSpaceOnUse">
<stop stop-color="#90A4AE"/>
<stop offset="1" stop-color="#CFD8DC"/>
</linearGradient>
<linearGradient id="paint1_linear_1_19" x1="182.5" y1="114" x2="281.5" y2="401" gradientUnits="userSpaceOnUse">
<stop stop-color="#455A64"/>
<stop offset="1" stop-color="#90A4AE"/>
</linearGradient>
<linearGradient id="paint2_linear_1_19" x1="277.5" y1="215.5" x2="255" y2="401" gradientUnits="userSpaceOnUse">
<stop stop-color="#263238"/>
<stop offset="1" stop-color="#455A64"/>
</linearGradient>
<linearGradient id="paint3_linear_1_19" x1="220.5" y1="287.5" x2="300.5" y2="401" gradientUnits="userSpaceOnUse">
<stop/>
<stop offset="1" stop-color="#263238"/>
</linearGradient>
</defs>
</svg>
